#!OML:ASF I:\Actors\actors\Patient Classification 2\Patient 1\Session 1\actor1.ASF
:FULLY-SPECIFIED
:DEGREES
334
root -0.699096 17.9081 5.16949 -3.83029 10.6126 -3.75636
lowerback 16.4962 1.51833 6.69131
upperback 3.87016 3.33886 3.16049
thorax -4.90458 1.58936 -1.1017
lowerneck -7.66704 -11.6153 -4.68949
upperneck -4.09888 -15.1327 14.026
head 1.49082 -7.37556 4.23578
rclavicle 1.21259e-014 2.3059e-014
rhumerus 48.907 0.183941 -60.9784
rradius 40.1156
rwrist -3.62802
rhand -11.9384 -45.3709
rfingers 7.12502
rthumb 14.1163 -74.8714
lclavicle 1.21259e-014 2.3059e-014
lhumerus -40.216 -12.0871 95.4471
lradius 57.1367
lwrist 11.9487
lhand -9.93104 -20.3953
lfingers 7.12502
lthumb 16.0501 8.95989
rfemur -4.01149 -8.6993 16.5733
rtibia 32.9934
rfoot -27.6115 -5.07239
rtoes -22.641
lfemur -18.2503 -4.67429 -10.1197
ltibia 44.898
lfoot -23.0701 -1.4657
ltoes -59.2886
335
root -0.701256 17.848 5.18571 -3.81533 10.7256 -3.8855
lowerback 16.1526 1.52722 6.87202
upperback 3.83785 3.34869 3.12976
thorax -4.74009 1.59745 -1.22403
lowerneck -7.74845 -11.555 -4.87358
upperneck -3.94632 -15.0575 14.3083
head 1.58188 -7.32281 4.33817
rclavicle 3.18055e-014 2.06736e-014
rhumerus 49.2798 -0.239749 -61.1147
rradius 39.6101
rwrist -2.90857
rhand -11.6154 -45.3719
rfingers 7.12502
rthumb 14.4276 -74.8504
lclavicle 3.18055e-014 2.06736e-014
lhumerus -40.8616 -12.5891 95.2731
lradius 58.0979
lwrist 12.0811
lhand -8.84164 -19.8864
lfingers 7.12502
lthumb 17.0989 9.38118
rfemur -4.59649 -9.14306 16.6389
rtibia 34.2385
rfoot -27.9954 -4.6849
rtoes -23.3604
lfemur -18.7993 -4.7152 -9.96023
ltibia 45.902
lfoot -23.5803 -1.58004
ltoes -59.3655
336
root -0.703435 17.7841 5.19967 -3.89174 10.749 -3.9983
lowerback 15.8966 1.5688 6.94711
upperback 3.83764 3.3897 3.10354
thorax -4.59293 1.622 -1.29102
lowerneck -7.50643 -11.4592 -4.76285
upperneck -3.74558 -14.965 14.3875
head 1.59321 -7.27855 4.35902
rclavicle 6.91771e-014 1.82882e-014
rhumerus 49.6553 -0.693647 -61.3873
rradius 39.0923
rwrist -2.18575
rhand -11.4207 -45.2659
rfingers 7.12502
rthumb 14.6152 -74.7309
lclavicle 6.91771e-014 1.82882e-014
lhumerus -41.3613 -13.3463 95.1898
lradius 59.0103
lwrist 12.4811
lhand -8.17808 -19.7617
lfingers 7.12502
lthumb 17.7375 9.4493
rfemur -5.12903 -9.55619 16.6654
rtibia 35.5497
rfoot -28.3804 -4.22399
rtoes -23.8077
lfemur -19.2361 -4.75425 -9.82239
ltibia 46.9114
lfoot -24.0924 -1.64404
ltoes -59.393
337
root -0.705766 17.7225 5.21162 -4.04775 10.7481 -4.05331
lowerback 15.8005 1.64496 6.93869
upperback 3.78454 3.47894 3.03743
thorax -4.58765 1.66498 -1.3699
lowerneck -7.00767 -11.3177 -4.16196
upperneck -3.40303 -14.8538 14.0456
head 1.52952 -7.23965 4.20075
rclavicle -1.88845e-014 -1.98785e-014
rhumerus 49.7368 -1.14241 -61.5755
rradius 38.7962
rwrist -1.55819
rhand -11.2803 -45.317
rfingers 7.12502
rthumb 14.7505 -74.7721
lclavicle -1.88845e-014 -1.98785e-014
lhumerus -41.9234 -14.3751 95.248
lradius 60.3571
lwrist 12.6827
lhand -7.82904 -18.0268
lfingers 7.12502
lthumb 18.0733 11.1535
rfemur -5.51805 -9.97806 16.5997
rtibia 36.7671
rfoot -28.731 -3.75089
rtoes -24.062
lfemur -19.5258 -4.81087 -9.75859
ltibia 47.8261
lfoot -24.5512 -1.71562
ltoes -59.2844
338
root -0.708968 17.6681 5.22347 -4.18276 10.7409 -3.98464
lowerback 15.7689 1.7319 6.77516
upperback 3.69703 3.56501 2.95693
thorax -4.6631 1.70436 -1.38062
lowerneck -6.36382 -11.0515 -3.4367
upperneck -3.16642 -14.5711 13.2494
head 1.46884 -7.13717 4.34732
rclavicle 5.74488e-014 -2.94201e-014
rhumerus 49.6487 -1.49984 -61.7417
rradius 38.6006
rwrist -0.702876
rhand -10.9531 -45.0655
rfingers 7.12502
rthumb 15.0657 -74.4973
lclavicle 5.74488e-014 -2.94201e-014
lhumerus -42.3878 -15.1741 95.3103
lradius 61.3263
lwrist 12.5127
lhand -7.68405 -17.7893
lfingers 7.12502
lthumb 18.2128 11.3781
rfemur -5.79332 -10.3731 16.4011
rtibia 37.7414
rfoot -29.0064 -3.34582
rtoes -24.2361
lfemur -19.7143 -4.8569 -9.8403
ltibia 48.5456
lfoot -24.9254 -1.69732
ltoes -59.2409
